<?xml version="1.0" standalone="no"?>
<!DOCTYPE svg PUBLIC "-//W3C//DTD SVG 20010904//EN"
 "http://www.w3.org/TR/2001/REC-SVG-20010904/DTD/svg10.dtd">
<svg version="1.0" xmlns="http://www.w3.org/2000/svg"
 width="256.000000pt" height="256.000000pt" viewBox="0 0 256.000000 256.000000"
 preserveAspectRatio="xMidYMid meet">

<g transform="translate(0.000000,256.000000) scale(0.100000,-0.100000)"
fill="#467303" stroke="none">
<path d="M946 2283 c-10 -20 -125 -277 -257 -570 -252 -560 -252 -559 -207
-600 18 -16 44 -18 249 -21 126 -2 229 -5 229 -8 0 -3 -54 -223 -120 -487 -66
-265 -122 -493 -126 -507 -7 -32 1382 1354 1391 1387 6 27 -17 78 -40 87 -9 3
-109 6 -222 6 -188 0 -205 1 -199 17 4 9 97 175 206 369 110 194 200 355 200
358 0 3 -244 6 -543 6 l-543 0 -18 -37z m823 -145 c-7 -13 -88 -156 -181 -320
-94 -166 -168 -307 -168 -321 0 -77 28 -87 242 -87 l173 0 -410 -410 c-225
-226 -413 -410 -416 -410 -4 0 27 133 67 295 70 277 73 297 59 324 -8 16 -22
31 -30 35 -9 3 -113 6 -232 6 -201 0 -215 1 -209 18 4 9 96 214 204 455 l196
437 359 0 358 0 -12 -22z"/>
</g>
</svg>
